<svg width="279" height="61" viewBox="0 0 279 61" fill="none" xmlns="http://www.w3.org/2000/svg">
<path d="M220.424 0.370011C220.371 0.596581 219.936 3.01915 219.448 5.75542C218.96 8.4917 218.524 10.9317 218.472 11.1931L218.367 11.6811H223.7H229.033L229.155 11.1931C229.242 10.9317 229.294 9.58969 229.294 8.19541C229.277 5.96456 229.242 5.54628 228.876 4.65742C227.796 1.92115 225.356 0.300297 221.94 0.0562983C220.546 -0.0482731 220.511 -0.0308447 220.424 0.370011Z" fill="white"/>
<path d="M5.66401 16.817C3.03242 17.6362 0.871386 20.3724 0.121994 23.8233L0 24.3984H9.86409H19.7282L19.641 24.7819C19.5888 25.0084 18.2294 32.7815 16.5912 42.0884C14.953 51.3778 13.5762 59.2554 13.5065 59.5866L13.4019 60.1792L14.5173 60.0572C16.5389 59.848 17.5323 59.5866 19.0311 58.872C21.8195 57.53 23.9805 54.8112 24.8694 51.5172C25.0436 50.8549 26.2287 44.5109 27.4661 37.4001L29.7491 24.4856L48.3619 24.4333C64.3083 24.3984 67.149 24.4333 68.0901 24.6599C71.1051 25.357 72.569 26.8558 72.569 29.2087C72.5865 31.4918 70.8437 33.8621 68.2818 35.117C65.8419 36.3021 65.9814 36.3021 55.1936 36.4067C45.7303 36.5112 45.3992 36.5287 44.5104 36.8947C42.2274 37.8184 40.4497 39.5264 39.2647 41.8792C38.5676 43.2735 38.5153 43.5175 37.1036 51.5869L35.6571 59.8654L40.6066 59.9177C43.3427 59.9352 45.6083 59.9352 45.6432 59.8829C45.6781 59.848 46.3403 56.2577 47.1071 51.918C47.8565 47.5609 48.5362 43.8312 48.5711 43.6046L48.6582 43.2212L54.6185 43.2561L60.5788 43.3084L64.7266 51.6218L68.8744 59.9526H77.0131H85.1693L87.9577 55.0726L90.7461 50.1926H99.6866C104.584 50.1926 108.61 50.2101 108.61 50.2275C108.627 50.2623 109.045 52.4409 109.551 55.0726L110.474 59.8654L152.283 59.9177L194.093 59.97L195.713 59.5866C198.781 58.8895 202.284 56.7632 204.27 54.3929C206.71 51.4475 207.948 48.0663 207.948 44.3889C207.93 40.3107 206.222 37.3827 202.859 35.7444C200.175 34.4198 200.419 34.4547 189.997 34.3501L180.673 34.2455L179.715 33.7924C177.78 32.8861 176.926 31.6835 176.926 29.8535C176.926 27.9713 178.216 26.2981 180.569 25.1304L181.876 24.4856L199.53 24.4333C213.664 24.3984 217.184 24.4333 217.184 24.6076C217.184 24.7296 215.773 32.7467 214.065 42.4021C211.869 54.8983 211.032 60.0049 211.172 60.0572C211.294 60.1094 212.026 60.0572 212.81 59.97C217.219 59.4123 220.513 56.8155 222.012 52.7023C222.256 52.0052 223.563 45.0686 225.462 34.2978C227.135 24.7819 228.512 16.8867 228.512 16.7647C228.512 16.5905 223.528 16.5556 203.033 16.5905L177.536 16.6427L175.863 17.1133C172.552 18.0196 169.955 19.5359 167.812 21.7841C166.26 23.3876 165.215 25.0956 164.5 27.1521C163.821 29.0867 163.646 32.0147 164.099 33.8098C164.814 36.6855 166.748 39.0732 169.432 40.3804C172.081 41.6875 172.099 41.6875 182.067 41.8095C190.067 41.9141 191.043 41.9664 191.827 42.2452C193.099 42.7158 193.5 42.9424 194.127 43.6046C195.382 44.8944 195.591 46.7941 194.703 48.5892C193.883 50.2101 192.419 51.3255 190.433 51.8309C189.544 52.0749 187.505 52.1098 175.497 52.1098C167.846 52.1098 161.59 52.0749 161.59 52.0226C161.59 51.9703 161.782 51.552 162.008 51.0989C162.914 49.3038 163.367 47.4389 163.455 45.1384C163.559 42.5415 163.367 41.4261 162.496 39.6832C161.642 37.9752 160.283 36.6507 158.418 35.7444C155.734 34.4198 155.978 34.4547 145.556 34.3501C136.32 34.2455 136.232 34.2455 135.379 33.8447C134.891 33.6355 134.263 33.2521 133.949 33.0255C133.148 32.4155 132.486 30.9864 132.486 29.8884C132.486 28.0933 134.176 25.7579 136.111 24.869C136.912 24.4856 137.086 24.4856 148.258 24.3984C155.664 24.3287 159.777 24.2241 160.126 24.1021C161.677 23.5619 162.792 22.7253 163.786 21.4007C164.553 20.3376 165.494 18.2984 165.685 17.2005L165.807 16.5382L149.46 16.5905L133.096 16.6427L131.37 17.1133C126.212 18.5424 122.238 21.8539 120.391 26.2981C119.258 28.9821 119.101 32.5724 120.007 34.9427C120.948 37.3827 122.778 39.3172 125.253 40.5198C127.641 41.6701 127.797 41.6875 137.627 41.8095C147.02 41.9315 147.055 41.9315 148.693 42.7855C149.338 43.1341 150.21 44.0926 150.506 44.8246C150.837 45.5741 150.854 47.2472 150.558 48.0489C149.948 49.6872 148.275 51.1512 146.271 51.7612C145.225 52.0923 144.633 52.1098 132.311 52.1098H119.467L117.533 44.4935C116.469 40.2932 114.43 32.2935 113.019 26.699L110.439 16.5556H105.107H99.7563L96.6541 21.6447C91.6524 29.871 91.1644 31.0213 91.147 34.4198C91.147 37.1735 92.0358 39.7704 93.6392 41.6875L94.3363 42.5241L89.4216 42.5589L84.507 42.6112L81.2655 48.1361C79.4878 51.186 77.9891 53.6783 77.9368 53.6783C77.8148 53.6783 72.1682 42.6461 72.2553 42.5764C72.2902 42.5415 72.8827 42.3498 73.5973 42.1581C74.3118 41.9664 75.6712 41.4261 76.6297 40.9555C80.9866 38.8292 83.7576 35.483 85.0299 30.8295C85.5004 29.1041 85.4655 25.3919 84.9601 23.7884C83.8622 20.3202 81.0563 17.6013 77.7451 16.817C76.7691 16.5905 72.2205 16.5556 41.5128 16.573C12.9662 16.573 6.25655 16.6253 5.66401 16.817ZM105.002 34.8032C105.839 38.8118 106.536 42.1929 106.518 42.2975C106.518 42.4718 105.194 42.5241 100.488 42.5241H94.4757L95.0508 41.5132C96.6716 38.6724 103.312 27.5356 103.381 27.5356C103.434 27.5356 104.165 30.8121 105.002 34.8032Z" fill="white"/>
<path d="M232.973 16.85C232.851 17.2857 232.52 19.1855 232.52 19.4643C232.52 19.656 236.005 19.6909 251.951 19.6909C262.635 19.6909 271.383 19.656 271.383 19.6212C271.383 19.5863 271.505 18.924 271.645 18.1746C271.784 17.4252 271.906 16.7629 271.906 16.6757C271.906 16.606 263.175 16.5537 252.492 16.5537C234.14 16.5537 233.06 16.5712 232.973 16.85Z" fill="white"/>
<path d="M232.019 22.2578C231.897 23.0072 231.758 23.7566 231.723 23.9309C231.636 24.2097 232.716 24.2272 253.194 24.1923L274.769 24.14L274.979 23.0072C275.101 22.3798 275.205 21.6652 275.205 21.3863L275.223 20.9158H253.717H232.228L232.019 22.2578Z" fill="white"/>
<path d="M263.121 25.655C262.964 26.143 262.668 27.973 262.668 28.3564V28.7573H270.406H278.144L278.335 27.5721C278.44 26.9273 278.579 26.1953 278.632 25.9164L278.736 25.4459H270.946C264.881 25.4459 263.173 25.4982 263.121 25.655Z" fill="white"/>
<path d="M262.316 30.0088C262.316 30.0437 262.194 30.7234 262.054 31.5425C261.915 32.3617 261.793 33.0414 261.793 33.0762C261.793 33.0937 265.296 33.0937 269.583 33.0762L277.373 33.024L277.582 31.8911C277.704 31.2637 277.809 30.584 277.809 30.3574L277.826 29.974H270.071C265.801 29.974 262.316 29.9914 262.316 30.0088Z" fill="white"/>
<path d="M232.958 34.5417C232.923 34.6637 232.801 35.2389 232.696 35.814C232.592 36.3892 232.47 37.034 232.417 37.2431L232.348 37.644H252.372H272.397L272.588 36.4589C272.693 35.814 272.832 35.082 272.885 34.8032L272.989 34.3326H253C237.175 34.3326 233.027 34.3849 232.958 34.5417Z" fill="white"/>
<path d="M228.787 40.4189C228.63 41.2729 228.508 42.0223 228.508 42.0746C228.508 42.1269 237.239 42.1792 247.922 42.1792C266.274 42.1792 267.354 42.1617 267.441 41.8654C267.581 41.3949 267.894 39.53 267.894 39.1815C267.894 38.8852 267.128 38.8677 248.48 38.8677H229.083L228.787 40.4189Z" fill="white"/>
<path d="M228.277 43.608C228.138 44.0437 227.824 45.9085 227.824 46.2223C227.824 46.5185 228.051 46.536 232.739 46.5011L237.653 46.4488L237.863 45.316C237.985 44.6886 238.089 44.0088 238.089 43.7823L238.107 43.3988H233.227C229.462 43.3988 228.33 43.4511 228.277 43.608Z" fill="white"/>
<path d="M251.174 44.7395C251.07 45.4715 250.93 46.1861 250.878 46.3081C250.808 46.4998 251.854 46.5346 256.542 46.5346H262.311L262.485 45.6109C262.59 45.1229 262.712 44.4084 262.781 44.0424L262.886 43.3975H257.135H251.401L251.174 44.7395Z" fill="white"/>
<path d="M227.456 47.9558C227.456 47.9907 227.334 48.6704 227.195 49.4895C227.056 50.3086 226.934 50.9884 226.934 51.0058C226.934 51.0406 229.164 51.0581 231.883 51.0581H236.833L237.042 49.7858C237.146 49.1061 237.286 48.3915 237.321 48.2172C237.408 47.9384 237.094 47.9209 232.441 47.9209C229.705 47.9209 227.456 47.9384 227.456 47.9558Z" fill="white"/>
<path d="M254.74 48.1301C254.653 48.4264 254.305 50.5875 254.305 50.8489C254.305 51.0058 255.786 51.0581 260.021 51.0581H265.737L265.999 49.4895L266.278 47.9209H260.544C256.117 47.9209 254.793 47.9732 254.74 48.1301Z" fill="white"/>
<path d="M226.695 52.4909C226.538 52.9789 226.242 54.8089 226.242 55.1924V55.5932H231.122H236.002L236.071 55.2098C236.368 53.8155 236.525 52.9092 236.525 52.6304C236.525 52.2992 236.368 52.2818 231.645 52.2818C227.88 52.2818 226.748 52.3341 226.695 52.4909Z" fill="white"/>
<path d="M257.987 53.5367C257.865 54.2338 257.725 54.9832 257.673 55.1924L257.586 55.5932H263.355C266.526 55.5932 269.123 55.5758 269.123 55.5409C269.123 55.5235 269.245 54.8438 269.385 54.0247C269.524 53.2055 269.646 52.4909 269.646 52.4038C269.646 52.3341 267.067 52.2818 263.93 52.2818H258.196L257.987 53.5367Z" fill="white"/>
<path d="M225.894 56.8533C225.894 56.8881 225.772 57.5678 225.633 58.387C225.493 59.2061 225.371 59.8858 225.371 59.9032C225.371 59.9381 227.602 59.9555 230.303 59.9555H235.253L235.462 58.6832C235.584 58.0035 235.723 57.289 235.758 57.1147C235.845 56.8358 235.531 56.8184 230.878 56.8184C228.142 56.8184 225.894 56.8358 225.894 56.8533Z" fill="white"/>
<path d="M261.555 57.0275C261.415 57.4633 261.102 59.3281 261.102 59.6418C261.102 59.9381 261.398 59.9555 266.818 59.9555H272.534L272.796 58.387L273.057 56.8184H267.341C262.914 56.8184 261.607 56.8707 261.555 57.0275Z" fill="white"/>
</svg>
