<svg width="183" height="67" viewBox="0 0 183 67" fill="none" xmlns="http://www.w3.org/2000/svg">
<path d="M118.82 2.79506V5.58817H122.795H126.77L126.813 3.37517C126.835 2.17198 126.856 0.947311 126.856 0.646515L126.878 0.109379L122.838 0.0449228L118.82 0.00195169V2.79506Z" fill="white"/>
<path d="M0 25.8938V45.9827H91.3186H182.637L182.594 25.9368L182.53 5.91235L154.898 5.84789L127.266 5.80492L127.137 6.59988C127.073 7.05107 127.008 12.9811 127.008 19.7705C126.987 26.5599 126.987 32.189 126.987 32.275C126.987 32.3824 125.16 32.4469 122.904 32.4469H118.843L118.779 35.8201L118.714 39.2148H105.285H91.8558V25.8938V12.5728L95.5085 12.5084C97.5283 12.4869 99.3762 12.5084 99.6555 12.5728L100.128 12.6803V22.4561V32.232H109.367H118.607L118.564 19.0614L118.499 5.91235L59.2604 5.84789L0 5.80492V25.8938ZM80.1025 12.8521C83.2181 13.6041 84.7007 14.8933 85.4313 17.5145C85.7321 18.5458 85.818 20.0498 85.8825 25.0559C86.0114 33.3922 85.6461 35.5193 83.7553 37.3241C82.9388 38.119 81.6066 38.7206 79.9307 39.0859C77.1159 39.6875 67.984 39.9238 61.1298 39.5371C56.1234 39.2792 54.1466 38.7851 52.5566 37.3885C50.7517 35.7986 50.279 33.4567 50.279 26.0012C50.279 17.3211 50.988 15.0007 54.0391 13.4967C56.1019 12.4654 58.7877 12.272 69.5096 12.358C77.4382 12.4224 78.491 12.4654 80.1025 12.8521ZM38.3108 12.6803C40.9322 13.067 42.5867 14.1628 43.4892 16.1179C43.8759 16.9344 43.9404 17.493 43.9404 19.8779C43.9404 22.9503 43.79 23.4874 42.4578 24.9055C41.8132 25.593 41.8132 25.636 42.1999 25.8723C43.0164 26.345 44.1338 27.6341 44.542 28.5795C44.8213 29.2026 45.0147 30.1909 45.0792 31.3511C45.2511 34.5739 44.4346 36.8084 42.6512 37.9901C40.8248 39.2148 40.6744 39.2148 25.6766 39.2148H11.9251L11.8607 26.1087C11.8392 18.8896 11.8607 12.8736 11.9251 12.7232C12.0541 12.401 36.0118 12.358 38.3108 12.6803ZM162.869 12.8736C165.598 13.4967 167.768 15.0437 168.585 16.9774C169.444 19.0185 169.638 20.6084 169.638 25.8938C169.638 31.6304 169.466 32.984 168.392 35.197C167.682 36.701 166.995 37.3455 165.362 38.1835C163.342 39.1933 161.58 39.3222 147.807 39.3222C136.505 39.3222 135.195 39.2792 135.066 38.9784C134.829 38.3554 134.915 13.3248 135.173 12.8736C135.388 12.4439 135.581 12.4439 148.538 12.5299C157.799 12.5943 162.031 12.7017 162.869 12.8736Z" fill="white"/>
<path d="M61.8825 19.4957C60.8296 19.6676 59.9917 20.0114 59.6264 20.4196C58.5306 21.6228 58.3372 28.5841 59.3041 30.9689C59.6908 31.8928 60.5503 32.2151 63.3221 32.4514C66.5021 32.7093 69.8756 32.7093 72.9911 32.4514C77.267 32.1077 77.4604 31.8284 77.4604 25.8984C77.4604 21.4939 77.3529 20.9567 76.2786 20.1618C75.9778 19.9469 75.2258 19.6891 74.5812 19.5602C73.4853 19.3668 63.0428 19.3023 61.8825 19.4957Z" fill="white"/>
<path d="M20.462 19.3026C20.2686 19.4315 20.2041 19.9257 20.2471 20.9785L20.3116 22.461L27.4022 22.5254C31.3128 22.5469 34.8151 22.5254 35.2019 22.461C36.6845 22.1817 37.1786 20.9355 36.2332 19.8397L35.7175 19.2381L28.2187 19.1737C24.1147 19.1522 20.6124 19.2167 20.462 19.3026Z" fill="white"/>
<path d="M20.2441 30.6662L20.3086 32.5569H28.0009H35.7146L36.2303 31.9124C36.5096 31.5471 36.746 31.0529 36.746 30.7736C36.746 30.1291 36.2088 29.0978 35.7791 28.9259C35.5857 28.8614 31.9974 28.797 27.8075 28.797H20.1797L20.2441 30.6662Z" fill="white"/>
<path d="M143.578 25.9355L143.643 32.1233L150.948 32.1877C158.168 32.2307 158.275 32.2307 159.22 31.758C160.445 31.1135 160.853 30.2755 161.154 27.8477C161.498 25.0331 161.068 21.8318 160.209 20.8649C159.263 19.8121 158.898 19.7692 150.948 19.7692H143.535L143.578 25.9355Z" fill="white"/>
<path d="M2.14867 53.9539C1.84786 54.0613 1.37515 54.3836 1.11731 54.6414C0.107434 55.5868 0 56.0595 0 59.7765C0.0214867 62.9993 0.0429735 63.3645 0.494195 64.2239C1.43961 66.0502 3.95356 66.7163 6.01629 65.6849C7.24103 65.0619 7.73523 64.138 7.73523 62.4621V61.2375H6.44602H5.15682V62.2688C5.15682 63.4719 4.66262 64.1165 3.84613 63.9876C2.98666 63.8802 2.79328 63.1067 2.79328 59.7335C2.79328 57.2412 2.85774 56.5107 3.13706 56.1239C3.78167 55.2001 5.15682 55.8016 5.15682 57.0263C5.15682 57.6924 5.22128 57.7568 5.86588 57.8428C6.23115 57.8857 6.85427 57.8642 7.19806 57.7998C7.79969 57.6924 7.84266 57.6279 7.7782 56.8329C7.62779 54.7489 6.59643 53.868 4.2114 53.782C3.37342 53.739 2.44949 53.825 2.14867 53.9539Z" fill="white"/>
<path d="M20.3732 54.1726C18.9551 54.9031 18.8047 55.4402 18.8047 59.8447C18.8047 64.3567 18.9551 64.8723 20.6311 65.6888C21.6409 66.1829 23.7251 66.3548 23.9615 65.9681C24.026 65.8392 24.2623 65.7532 24.4557 65.7532C25.5085 65.7317 26.4755 64.0774 26.3895 62.466L26.325 61.3487H25.1433H23.9615L23.7896 62.423C23.7037 63.0031 23.5103 63.6047 23.3814 63.7551C23.0376 64.1848 21.9632 64.0989 21.7054 63.6262C21.5765 63.3898 21.4905 61.6925 21.4905 59.6299V56.0848L22.0277 55.827C22.8872 55.4402 23.5962 55.8914 23.7681 56.9442L23.9185 57.8036H25.1648H26.4325V56.9872C26.4325 55.827 25.8094 54.7742 24.821 54.2156C23.6822 53.571 21.5335 53.5495 20.3732 54.1726Z" fill="white"/>
<path d="M94.758 53.9553C93.8986 54.299 93.0391 55.2444 92.8028 56.1253C92.6953 56.5765 92.6523 57.0492 92.7168 57.1566C92.7813 57.2855 93.3184 57.3714 93.8986 57.3714C94.887 57.3714 94.9729 57.3285 95.1018 56.7698C95.2952 55.9534 95.596 55.6526 96.1547 55.6526C96.4125 55.6526 96.7348 55.7815 96.8423 55.9104C97.5298 56.7913 97.1431 58.5746 96.2191 58.7035C95.7894 58.768 95.725 58.8969 95.725 59.6274C95.725 60.3364 95.8109 60.5083 96.1762 60.5513C96.9067 60.6587 97.4009 61.3462 97.4009 62.2701C97.4009 63.4733 97.0142 64.0319 96.2406 64.0319C95.682 64.0319 95.5316 63.903 95.2522 63.1725C94.9085 62.3131 94.9085 62.3131 93.7482 62.3131C92.6953 62.3131 92.6094 62.3561 92.6094 62.8073C92.6094 63.0651 92.8242 63.7311 93.1036 64.2468C93.963 65.9656 96.2621 66.6531 98.1315 65.7508C98.6257 65.5144 99.2058 65.0847 99.4636 64.7624C100.409 63.5592 100.216 60.938 99.0984 60.229C98.2174 59.6489 98.1744 59.4985 98.8405 58.8754C100.388 57.4359 99.8289 54.8791 97.7877 54.0197C96.9712 53.6759 95.5531 53.6545 94.758 53.9553Z" fill="white"/>
<path d="M103.461 54.1268C101.85 54.8573 101.742 55.2011 101.742 59.7345C101.742 64.3969 101.871 64.8051 103.655 65.6645C104.987 66.3091 106.168 66.3091 107.415 65.686C109.198 64.8051 109.263 64.5903 109.263 59.842C109.263 55.9531 109.241 55.6523 108.811 55.0722C108.575 54.7499 108.038 54.2987 107.63 54.1054C106.641 53.6112 104.557 53.6112 103.461 54.1268ZM106.254 55.9531C106.641 56.2324 106.684 56.5977 106.749 59.4767C106.856 63.2152 106.62 64.0316 105.502 64.0316C105.094 64.0316 104.793 63.8812 104.643 63.6234C104.514 63.3871 104.428 61.7327 104.428 59.8205C104.428 56.9844 104.492 56.3828 104.793 56.039C105.202 55.5664 105.696 55.5449 106.254 55.9531Z" fill="white"/>
<path d="M131.479 53.9974C129.803 54.7494 129.566 55.5014 129.566 59.82C129.566 62.9998 129.609 63.3865 130.061 64.246C131.221 66.5879 135.11 66.8242 136.7 64.6542C137.001 64.2674 137.13 63.6873 137.151 62.7205L137.194 61.3454L135.991 61.281L134.788 61.2165L134.659 62.3338C134.573 62.9353 134.401 63.5584 134.272 63.7303C133.907 64.1815 132.854 64.117 132.575 63.6229C132.446 63.3865 132.36 61.7322 132.36 59.7555C132.36 56.9194 132.424 56.2749 132.703 55.9955C133.456 55.2436 134.401 55.7592 134.68 57.0483C134.852 57.8863 134.874 57.9078 135.819 57.9078C137.194 57.9078 137.302 57.8433 137.302 56.9624C137.302 54.9642 135.798 53.7181 133.434 53.7396C132.66 53.7396 131.78 53.8685 131.479 53.9974Z" fill="white"/>
<path d="M150.153 54.1695C148.821 54.857 148.713 55.3082 148.67 59.7987C148.649 64.4825 148.735 64.7833 150.561 65.6427C151.936 66.3087 153.011 66.3087 154.257 65.6857C156.04 64.8048 156.105 64.5899 156.105 59.8416C156.105 55.9528 156.083 55.652 155.654 55.0719C154.966 54.148 153.935 53.7398 152.345 53.7398C151.378 53.7398 150.712 53.8687 150.153 54.1695ZM153.226 55.9957C153.612 56.4684 153.612 63.2148 153.204 63.6875C152.86 64.1172 152.044 64.1172 151.614 63.6875C151.335 63.4082 151.27 62.7422 151.27 59.8416C151.27 56.9411 151.335 56.275 151.614 55.9957C152.044 55.5445 152.86 55.566 153.226 55.9957Z" fill="white"/>
<path d="M159.408 54.1489C157.99 54.9009 157.84 55.3521 157.754 59.0046C157.646 62.6786 157.904 64.376 158.635 65.0635C159.881 66.2022 162.137 66.503 163.62 65.6866C164.887 64.9776 165.446 64.0107 165.446 62.5067V61.2391H164.178H162.932L162.825 62.3134C162.76 62.8935 162.588 63.5166 162.438 63.7099C162.051 64.1826 160.998 64.1181 160.719 63.624C160.59 63.3876 160.504 61.7333 160.504 59.7566C160.504 56.9205 160.569 56.276 160.848 55.9966C161.578 55.2447 162.545 55.7603 162.803 57.028C162.975 57.8444 163.018 57.8659 163.942 57.9089C165.296 57.9518 165.446 57.8659 165.446 56.9635C165.446 55.8248 164.823 54.772 163.835 54.2134C162.717 53.5688 160.547 53.5473 159.408 54.1489Z" fill="white"/>
<path d="M9.66797 59.8432V65.7517H10.9572C12.4398 65.7517 12.2679 65.9666 13.4926 62.4C14.7174 58.8764 14.7818 58.8764 14.6529 62.5289L14.5455 65.7517H15.8776H17.1883L17.1454 59.8862L17.0809 54.0421H15.7917H14.5025L13.4281 57.2649C12.3753 60.4233 11.8166 61.2398 12.0315 59.3061C12.096 58.7689 12.1389 57.3724 12.1389 56.1907V54.0421L10.9142 53.9777L9.66797 53.9132V59.8432Z" fill="white"/>
<path d="M27.8692 54.0817C27.7832 54.1462 27.7188 54.6403 27.7188 55.156V56.0799H28.5567C30.1682 56.0799 30.0823 55.822 30.0823 61.043V65.7483H31.2641H32.4458V61.043C32.4458 55.8435 32.3814 56.0799 33.864 56.0799H34.5945V55.0056V53.9313H31.307C29.4807 53.9313 27.9336 53.9958 27.8692 54.0817Z" fill="white"/>
<path d="M36.252 54.0622C36.166 54.1481 36.1016 56.8123 36.1016 59.9922V65.7718L39.389 65.7073L42.655 65.6428L42.7195 64.9123C42.7625 64.5256 42.698 64.0959 42.5906 63.9885C42.4831 63.881 41.6451 63.7521 40.7212 63.6877C39.8188 63.6447 38.9808 63.5588 38.8734 63.4728C38.637 63.3439 38.6155 61.2383 38.8519 60.8731C38.9378 60.7227 39.6684 60.5938 40.6138 60.5508L42.2253 60.4863L42.2897 59.5625L42.3542 58.6601H40.7857C39.8403 58.6601 39.0882 58.5526 38.9378 58.4023C38.594 58.0585 38.6155 56.4041 38.9593 56.1248C39.1097 55.9959 40.0121 55.867 40.9361 55.824L42.655 55.7595V54.9001V54.0407L39.518 53.9763C37.799 53.9548 36.3379 53.9977 36.252 54.0622Z" fill="white"/>
<path d="M44.3733 54.1911C44.3088 54.3415 44.2874 56.9842 44.3088 60.0566L44.3733 65.6428L45.6195 65.7073L46.8443 65.7718V61.6251C46.8658 58.5312 46.9087 57.5858 47.0806 57.8866C47.274 58.2089 48.7566 64.9553 48.7781 65.5999C48.7781 65.7073 49.1863 65.7503 49.702 65.7073C50.5615 65.6428 50.6045 65.5999 50.7763 64.7834C50.8838 64.3107 51.0557 63.5802 51.1416 63.172C51.2491 62.7638 51.4854 61.4962 51.7003 60.3789C52.1085 58.0585 52.1945 57.8007 52.4738 57.8007C52.5812 57.8007 52.6457 59.3691 52.6027 61.711L52.5383 65.6428L53.7845 65.7073L55.0092 65.7718V61.9903C55.0307 59.9277 55.0307 57.4139 55.0307 56.4041C55.0307 55.3943 55.0307 54.4274 55.0092 54.2556C55.0092 53.9977 54.644 53.9333 53.0969 53.9333H51.1846L51.0772 54.6208C50.9912 55.2224 50.2392 59.3476 49.9384 61.002C49.745 61.9259 49.5301 61.2383 48.8855 57.6288L48.2194 54.0407L46.3501 53.9763C44.9534 53.9333 44.4378 53.9977 44.3733 54.1911Z" fill="white"/>
<path d="M57.3711 59.8418V65.7932L60.1429 65.7073C62.5709 65.6428 63.0006 65.5784 63.5378 65.1917C65.3212 63.8596 65.3212 60.5508 63.5378 59.2187C63.1081 58.8964 62.4849 58.7245 61.4965 58.6601L60.0569 58.5526L59.9495 56.2967L59.8421 54.0407L58.6173 53.9762L57.3711 53.9118V59.8418ZM61.6684 61.0235C62.6353 61.9903 61.9048 63.924 60.6371 63.7736C60.0999 63.7092 60.0569 63.6447 59.9925 62.4415C59.9495 61.754 59.971 61.045 60.0354 60.8946C60.2073 60.4434 61.1742 60.5293 61.6684 61.0235Z" fill="white"/>
<path d="M66.3984 59.8398V65.7483H67.6876H68.9768V59.8398V53.9313H67.6876H66.3984V59.8398Z" fill="white"/>
<path d="M75.5684 54.0602C75.4824 54.1462 75.418 56.8104 75.418 59.9902V65.7483H78.0608C81.069 65.7483 81.8855 65.469 82.5516 64.2229C83.0243 63.3205 83.0672 61.5372 82.616 60.4414C82.1218 59.2382 81.3698 58.787 79.6938 58.7011C78.0823 58.5937 77.9964 58.5077 78.1683 56.7889L78.2542 55.8865L80.0161 55.8221L81.7566 55.7576V54.8982V54.0388L78.7269 53.9743C77.0724 53.9528 75.6543 53.9958 75.5684 54.0602ZM79.7368 61C80.1236 61.3008 80.2525 61.6231 80.2525 62.2892C80.2525 63.2775 79.7583 63.7931 78.8344 63.8146C78.3402 63.8146 78.2327 63.7072 78.1038 63.0412C78.0394 62.6114 78.0394 61.8809 78.1038 61.4297C78.2327 60.7422 78.3402 60.5918 78.7484 60.5918C79.0063 60.5918 79.4575 60.7852 79.7368 61Z" fill="white"/>
<path d="M84.7678 54.406C84.7034 54.6853 84.6819 57.3065 84.7034 60.2715L84.7678 65.6428L88.0553 65.7073L91.3213 65.7718V64.7834V63.8166H90.5263C90.0751 63.8166 89.1941 63.7521 88.571 63.6662L87.4322 63.5373L87.4966 62.1192L87.5611 60.7012L89.28 60.5938L90.999 60.4863L91.0634 59.5625L91.1279 58.6601H89.5594C88.6999 58.6601 87.8619 58.5741 87.7115 58.4667C87.5181 58.3593 87.4537 57.9296 87.4966 57.1346L87.5611 55.9744L89.4519 55.9099L91.3213 55.8455V54.9001V53.9333H88.0983C84.9397 53.9333 84.8753 53.9333 84.7678 54.406Z" fill="white"/>
<path d="M111.22 54.2985C111.069 54.7712 111.091 64.3537 111.241 65.1487C111.327 65.7288 111.392 65.7503 112.616 65.7503H113.884L113.927 60.959L113.992 56.1893H114.959H115.925L116.033 60.916L116.14 65.6428L117.494 65.7073L118.826 65.7718L118.783 59.9062L118.719 54.0407L115.023 53.9763C111.65 53.9333 111.327 53.9548 111.22 54.2985Z" fill="white"/>
<path d="M122.735 54.2944C122.627 54.5092 122.455 55.0249 122.369 55.4331C122.305 55.8413 122.047 56.9586 121.832 57.9039C121.617 58.8493 121.274 60.3533 121.08 61.2342C120.887 62.1151 120.586 63.4257 120.414 64.1562C120.242 64.8652 120.113 65.5313 120.113 65.6172C120.113 65.7031 120.715 65.7461 121.467 65.7031L122.799 65.6387L122.928 64.7148C123.078 63.5116 123.293 63.3397 124.54 63.4257L125.592 63.4901L125.807 64.5644L126.044 65.6387L127.268 65.7031C128.686 65.7676 128.708 65.7246 128.192 63.5116C128.02 62.7811 127.526 60.6111 127.096 58.6559C125.958 53.5209 126.258 54.058 124.454 53.9721C123.164 53.9291 122.907 53.9721 122.735 54.2944ZM124.84 58.6129C124.991 59.6442 125.077 60.697 125.034 60.9119C124.926 61.4705 123.83 61.6424 123.616 61.1267C123.508 60.783 123.916 57.2379 124.131 56.8726C124.389 56.4214 124.583 56.8941 124.84 58.6129Z" fill="white"/>
<path d="M139.234 59.8398V65.7483H140.524H141.813V63.2775C141.813 60.8496 141.813 60.8067 142.328 60.6778C142.608 60.6133 143.081 60.5918 143.338 60.6348C143.833 60.6992 143.854 60.7637 143.918 63.213L143.983 65.7483H145.358H146.755L146.712 59.8828L146.647 54.0388H145.358H144.069L143.961 56.1873L143.854 58.3358H142.887H141.92L141.856 56.1228L141.791 53.9313H140.524H139.234V59.8398Z" fill="white"/>
<path d="M166.885 54.0837C166.799 54.1481 166.734 54.6423 166.734 55.158V56.0818H167.658C168.174 56.0818 168.69 56.1893 168.84 56.3397C169.033 56.533 169.098 57.9081 169.098 61.1739V65.7718L170.323 65.7073L171.547 65.6428L171.483 61.3028C171.461 58.4667 171.504 56.8123 171.676 56.533C171.848 56.1893 172.128 56.0818 172.751 56.0818H173.61V55.0076V53.9333H170.323C168.496 53.9333 166.949 53.9977 166.885 54.0837Z" fill="white"/>
<path d="M175.121 59.8418V65.7718L176.432 65.7073L177.764 65.6428L178.752 62.8497C180.063 59.1757 180.321 58.746 180.17 60.5938C180.042 62.0333 179.977 64.1389 180.042 65.1487C180.063 65.7288 180.106 65.7503 181.352 65.7503H182.641V59.8418V53.9333H181.288H179.934L179.01 56.7479C177.528 61.2383 177.119 61.6466 177.506 58.2733C177.614 57.1991 177.7 55.8025 177.657 55.1794L177.592 54.0407L176.367 53.9763L175.121 53.9118V59.8418Z" fill="white"/>
</svg>
